<svg width="211" height="24" viewBox="0 0 211 24" fill="none" xmlns="http://www.w3.org/2000/svg">
<path d="M2.148 14.412H11.566V12.406H2.148V8.768H0.142V24H2.148V14.412ZM0.142 2.274H17.924V0.268H0.142V2.274ZM34.2148 24H36.4248L25.9868 0.268L15.5488 24H17.7588L25.9868 5.3L29.1828 12.406H24.4568L23.5048 14.412H30.0668L34.2148 24ZM46.4035 24C48.8175 24 50.9935 23.014 52.5915 21.416C54.1895 19.818 55.1415 17.642 55.1415 15.228C55.1415 12.882 54.1895 10.672 52.6935 9.074C51.1635 7.476 49.0555 6.456 46.7435 6.456H44.9415V15.568C43.4455 15.262 42.1535 14.412 41.2015 13.256C40.2495 12.1 39.7055 10.638 39.7055 9.006C39.7055 7.204 40.4535 5.504 41.6775 4.28C42.8675 3.09 44.4995 2.342 46.3695 2.342C47.7635 2.342 49.1235 2.784 50.2455 3.566C51.3335 4.348 52.1495 5.436 52.6595 6.796H54.8015C54.2575 4.858 53.1355 3.226 51.6735 2.07C50.1775 0.913999 48.3415 0.268 46.3355 0.268C43.9215 0.268 41.7795 1.254 40.1815 2.852C38.5835 4.45 37.6315 6.592 37.6315 9.006C37.6315 11.42 38.5835 13.596 40.1135 15.194C41.6435 16.826 43.8195 17.812 46.1655 17.812H46.9135V8.564C48.6475 8.7 50.1775 9.448 51.2995 10.638C52.3875 11.862 53.0675 13.46 53.0675 15.228C53.0675 17.098 52.3195 18.764 51.1295 19.954C49.9055 21.178 48.2055 21.926 46.4035 21.926C44.9415 21.926 43.6495 21.484 42.5615 20.702C41.4735 19.92 40.6235 18.798 40.1135 17.472H37.9715C38.5155 19.41 39.6375 21.008 41.1335 22.164C42.5955 23.32 44.3975 24 46.4035 24ZM75.1848 24H77.1908V0.268H75.1848V12.406H61.4828V0.268H59.4768V24H61.4828V14.412H75.1848V24ZM82.9474 24V0.268H80.9414V24H82.9474ZM98.9043 24C102.168 24 105.16 22.674 107.302 20.532C109.444 18.39 110.77 15.398 110.77 12.134C110.77 8.87 109.444 5.878 107.302 3.736C105.16 1.594 102.168 0.268 98.9043 0.268C95.6403 0.268 92.6483 1.594 90.5063 3.736C88.3643 5.878 87.0383 8.87 87.0383 12.134C87.0383 15.398 88.3643 18.39 90.5063 20.532C92.6483 22.674 95.6403 24 98.9043 24ZM99.9243 2.376C102.372 2.614 104.582 3.77 106.214 5.504C107.812 7.272 108.764 9.584 108.764 12.134C108.764 14.684 107.812 16.962 106.214 18.696C104.582 20.464 102.372 21.62 99.9243 21.892V2.376ZM97.8843 21.892C95.4363 21.654 93.2263 20.498 91.6283 18.73C90.0303 16.996 89.0783 14.684 89.0783 12.134C89.0783 9.584 90.0303 7.272 91.6283 5.504C93.2263 3.77 95.4363 2.614 97.8843 2.342V21.892ZM116.255 5.572L133.085 24V0.268H131.079V18.764L114.249 0.268V24H116.255V5.572ZM167.637 24V21.994H151.861V0.268H149.855V24H167.637ZM188.477 24H190.687L180.249 0.268L169.811 24H172.021L180.249 5.3L183.445 12.406H178.719L177.767 14.412H184.329L188.477 24ZM200.445 2.274C202.349 2.274 203.845 3.736 203.845 5.538C203.845 7.306 202.349 8.768 200.445 8.768H194.427V2.274H200.445ZM202.791 24C206.939 24 210.203 20.43 210.203 16.35C210.203 12.848 207.755 9.89 204.423 9.006C205.239 8.088 205.749 6.83 205.749 5.538C205.749 2.614 203.301 0.268 200.343 0.268H192.421V12.746H194.427V10.808L202.553 10.774C205.681 10.74 208.163 13.29 208.163 16.35C208.163 19.41 205.715 21.994 202.621 21.994H194.087V24H202.791Z" fill="#C2000B"/>
</svg>
