<svg width="232" height="253" viewBox="0 0 232 253" fill="none" xmlns="http://www.w3.org/2000/svg">
<rect x="0.135437" width="231.16" height="252.604" fill="#0A0A0A"/>
<path d="M116.519 186.291C115.928 186.291 115.338 185.799 115.338 185.208V180.386C115.338 179.796 115.83 179.304 116.519 179.304C117.11 179.304 117.701 179.796 117.701 180.386V185.208C117.701 185.799 117.209 186.291 116.519 186.291ZM116.519 180.386C116.421 180.386 116.322 180.485 116.322 180.485V185.307C116.322 185.307 116.421 185.405 116.519 185.405C116.618 185.405 116.716 185.307 116.716 185.307V180.485C116.716 180.386 116.618 180.386 116.519 180.386Z" fill="#C2000B"/>
<path d="M116.519 175.958C115.928 175.958 115.338 175.466 115.338 174.876V170.053C115.338 169.463 115.83 168.971 116.519 168.971C117.11 168.971 117.701 169.463 117.701 170.053V174.876C117.701 175.466 117.209 175.958 116.519 175.958ZM116.519 170.053C116.421 170.053 116.322 170.152 116.322 170.152V174.974C116.322 174.974 116.421 175.072 116.519 175.072C116.618 175.072 116.716 175.072 116.716 174.974V170.152C116.716 170.152 116.618 170.053 116.519 170.053Z" fill="#C2000B"/>
<path d="M116.519 165.723C115.928 165.723 115.338 165.231 115.338 164.641V159.818C115.338 159.228 115.83 158.736 116.519 158.736C117.11 158.736 117.701 159.228 117.701 159.818V164.641C117.701 165.231 117.209 165.723 116.519 165.723ZM116.519 159.818C116.421 159.818 116.322 159.917 116.322 159.917V164.739C116.322 164.739 116.421 164.837 116.519 164.837C116.618 164.837 116.716 164.837 116.716 164.739V159.917C116.716 159.818 116.618 159.818 116.519 159.818Z" fill="#C2000B"/>
<path d="M116.519 155.39C115.928 155.39 115.338 154.898 115.338 154.307V149.583C115.338 148.993 115.83 148.501 116.519 148.501C117.11 148.501 117.701 148.993 117.701 149.583V154.405C117.701 154.996 117.209 155.39 116.519 155.39ZM116.519 149.485C116.421 149.485 116.322 149.583 116.322 149.583V154.405C116.322 154.405 116.421 154.504 116.519 154.504C116.618 154.504 116.716 154.405 116.716 154.405V149.583C116.716 149.583 116.618 149.485 116.519 149.485Z" fill="#C2000B"/>
<path d="M116.519 42.3135C115.929 42.3135 115.338 41.8215 115.338 41.231V36.5072C115.338 35.9167 115.83 35.4247 116.519 35.4247C117.11 35.4247 117.701 35.9167 117.701 36.5072V41.3294C117.701 41.8215 117.209 42.3135 116.519 42.3135ZM116.519 36.4088C116.421 36.4088 116.322 36.5072 116.322 36.5072V41.3294C116.322 41.3294 116.421 41.4278 116.519 41.4278C116.618 41.4278 116.716 41.3294 116.716 41.3294V36.5072C116.716 36.5072 116.618 36.4088 116.519 36.4088Z" fill="#C2000B"/>
<path d="M116.519 73.215C115.928 73.215 115.338 72.723 115.338 72.1325V67.3103C115.338 66.7198 115.83 66.2277 116.519 66.2277C117.11 66.2277 117.701 66.7198 117.701 67.3103V72.1325C117.701 72.723 117.209 73.215 116.519 73.215ZM116.519 67.2118C116.421 67.2118 116.322 67.3103 116.322 67.3103V72.1325C116.322 72.1325 116.421 72.2309 116.519 72.2309C116.618 72.2309 116.716 72.1325 116.716 72.1325V67.3103C116.716 67.3103 116.618 67.2118 116.519 67.2118Z" fill="#C2000B"/>
<path d="M116.519 93.783C115.928 93.783 115.338 93.2909 115.338 92.7005V87.8783C115.338 87.2878 115.83 86.7957 116.519 86.7957C117.11 86.7957 117.701 87.2878 117.701 87.8783V92.7005C117.701 93.2909 117.209 93.783 116.519 93.783ZM116.519 87.7798C116.421 87.7798 116.322 87.8783 116.322 87.8783V92.7005C116.322 92.7005 116.421 92.7989 116.519 92.7989C116.618 92.7989 116.716 92.7005 116.716 92.7005V87.8783C116.716 87.8783 116.618 87.7798 116.519 87.7798Z" fill="#C2000B"/>
<path d="M116.519 83.4502C115.928 83.4502 115.338 82.9581 115.338 82.3676V77.5454C115.338 76.9549 115.83 76.4629 116.519 76.4629C117.11 76.4629 117.701 76.9549 117.701 77.5454V82.3676C117.701 82.9581 117.209 83.4502 116.519 83.4502ZM116.519 77.5454C116.421 77.5454 116.322 77.6438 116.322 77.6438V82.466C116.322 82.466 116.421 82.5644 116.519 82.5644C116.618 82.5644 116.716 82.466 116.716 82.466V77.6438C116.716 77.5454 116.618 77.5454 116.519 77.5454Z" fill="#C2000B"/>
<path d="M116.519 62.8815C115.928 62.8815 115.338 62.3894 115.338 61.7989V57.0751C115.338 56.4846 115.83 55.9926 116.519 55.9926C117.11 55.9926 117.701 56.4846 117.701 57.0751V61.8973C117.701 62.3894 117.209 62.8815 116.519 62.8815ZM116.519 56.9767C116.421 56.9767 116.322 57.0751 116.322 57.0751V61.8973C116.322 61.8973 116.421 61.9958 116.519 61.9958C116.618 61.9958 116.716 61.8973 116.716 61.8973V57.0751C116.716 57.0751 116.618 56.9767 116.519 56.9767Z" fill="#C2000B"/>
<path d="M116.519 52.647C115.928 52.647 115.338 52.1549 115.338 51.5645V46.7422C115.338 46.1518 115.83 45.6597 116.519 45.6597C117.11 45.6597 117.701 46.1518 117.701 46.7422V51.5645C117.701 52.1549 117.209 52.647 116.519 52.647ZM116.519 46.7422C116.421 46.7422 116.322 46.8407 116.322 46.8407V51.6629C116.322 51.6629 116.421 51.7613 116.519 51.7613C116.618 51.7613 116.716 51.6629 116.716 51.6629V46.8407C116.716 46.7422 116.618 46.7422 116.519 46.7422Z" fill="#C2000B"/>
<path d="M116.519 124.586C115.928 124.586 115.338 124.094 115.338 123.504V118.681C115.338 118.091 115.83 117.599 116.519 117.599C117.11 117.599 117.701 118.091 117.701 118.681V123.504C117.701 124.094 117.209 124.586 116.519 124.586ZM116.519 118.681C116.421 118.681 116.322 118.78 116.322 118.78V123.602C116.322 123.602 116.421 123.7 116.519 123.7C116.618 123.7 116.716 123.602 116.716 123.602V118.78C116.716 118.681 116.618 118.681 116.519 118.681Z" fill="#C2000B"/>
<path d="M116.519 134.821C115.928 134.821 115.338 134.329 115.338 133.739V128.916C115.338 128.326 115.83 127.834 116.519 127.834C117.11 127.834 117.701 128.326 117.701 128.916V133.739C117.701 134.428 117.209 134.821 116.519 134.821ZM116.519 128.916C116.421 128.916 116.322 129.015 116.322 129.015V133.837C116.322 133.837 116.421 133.936 116.519 133.936C116.618 133.936 116.716 133.837 116.716 133.837V129.015C116.716 129.015 116.618 128.916 116.519 128.916Z" fill="#C2000B"/>
<path d="M116.519 145.154C115.928 145.154 115.338 144.662 115.338 144.072V139.249C115.338 138.659 115.83 138.167 116.519 138.167C117.11 138.167 117.701 138.659 117.701 139.249V144.072C117.701 144.662 117.209 145.154 116.519 145.154ZM116.519 139.249C116.421 139.249 116.322 139.348 116.322 139.348V144.17C116.322 144.17 116.421 144.268 116.519 144.268C116.618 144.268 116.716 144.17 116.716 144.17V139.348C116.716 139.249 116.618 139.249 116.519 139.249Z" fill="#C2000B"/>
<path d="M116.519 104.018C115.928 104.018 115.338 103.526 115.338 102.936V98.1134C115.338 97.5229 115.83 97.0309 116.519 97.0309C117.11 97.0309 117.701 97.5229 117.701 98.1134V102.936C117.701 103.526 117.209 104.018 116.519 104.018ZM116.519 98.1134C116.421 98.1134 116.322 98.2118 116.322 98.2118V103.034C116.322 103.034 116.421 103.132 116.519 103.132C116.618 103.132 116.716 103.132 116.716 103.034V98.2118C116.716 98.1134 116.618 98.1134 116.519 98.1134Z" fill="#C2000B"/>
<path d="M116.519 114.253C115.928 114.253 115.338 113.761 115.338 113.171V108.348C115.338 107.758 115.83 107.266 116.519 107.266C117.11 107.266 117.701 107.758 117.701 108.348V113.171C117.701 113.86 117.209 114.253 116.519 114.253ZM116.519 108.348C116.421 108.348 116.322 108.447 116.322 108.447V113.269C116.322 113.269 116.421 113.367 116.519 113.367C116.618 113.367 116.716 113.367 116.716 113.269V108.447C116.716 108.447 116.618 108.348 116.519 108.348Z" fill="#C2000B"/>
<path d="M116.519 42.2149C116.027 42.2149 115.534 41.8213 115.534 41.3292V36.507C115.534 36.0149 115.928 35.6213 116.519 35.6213C117.11 35.6213 117.504 36.0149 117.504 36.507V41.3292C117.504 41.8213 117.11 42.2149 116.519 42.2149Z" fill="#C2000B"/>
<path d="M116.519 52.4499C116.027 52.4499 115.534 52.0563 115.534 51.5642V46.742C115.534 46.2499 115.928 45.8563 116.519 45.8563C117.11 45.8563 117.504 46.2499 117.504 46.742V51.5642C117.504 52.0563 117.11 52.4499 116.519 52.4499Z" fill="#C2000B"/>
<path d="M116.519 62.6845C116.027 62.6845 115.534 62.2909 115.534 61.7988V57.075C115.534 56.583 115.928 56.1893 116.519 56.1893C117.11 56.1893 117.504 56.583 117.504 57.075V61.8972C117.504 62.2909 117.11 62.6845 116.519 62.6845Z" fill="#C2000B"/>
<path d="M116.519 73.018C116.027 73.018 115.534 72.6243 115.534 72.1322V67.31C115.534 66.818 115.928 66.4243 116.519 66.4243C117.11 66.4243 117.504 66.818 117.504 67.31V72.1322C117.504 72.6243 117.11 73.018 116.519 73.018Z" fill="#C2000B"/>
<path d="M116.519 83.253C116.027 83.253 115.534 82.8594 115.534 82.3673V77.5451C115.534 77.053 115.928 76.6594 116.519 76.6594C117.11 76.6594 117.504 77.053 117.504 77.5451V82.3673C117.504 82.8594 117.11 83.253 116.519 83.253Z" fill="#C2000B"/>
<path d="M116.519 93.5859C116.027 93.5859 115.534 93.1923 115.534 92.7002V87.878C115.534 87.3859 115.928 86.9923 116.519 86.9923C117.11 86.9923 117.504 87.3859 117.504 87.878V92.7002C117.504 93.1923 117.11 93.5859 116.519 93.5859Z" fill="#C2000B"/>
<path d="M116.519 103.821C116.027 103.821 115.534 103.427 115.534 102.935V98.1131C115.534 97.621 115.928 97.2274 116.519 97.2274C117.11 97.2274 117.504 97.621 117.504 98.1131V102.935C117.504 103.427 117.11 103.821 116.519 103.821Z" fill="#C2000B"/>
<path d="M116.519 114.155C116.027 114.155 115.534 113.761 115.534 113.269V108.447C115.534 107.955 115.928 107.561 116.519 107.561C117.11 107.561 117.504 107.955 117.504 108.447V113.269C117.504 113.761 117.11 114.155 116.519 114.155Z" fill="#C2000B"/>
<path d="M116.519 124.39C116.027 124.39 115.534 123.996 115.534 123.504V118.682C115.534 118.19 115.928 117.796 116.519 117.796C117.11 117.796 117.504 118.19 117.504 118.682V123.504C117.504 123.996 117.11 124.39 116.519 124.39Z" fill="#C2000B"/>
<path d="M116.519 134.723C116.027 134.723 115.534 134.329 115.534 133.837V129.015C115.534 128.523 115.928 128.129 116.519 128.129C117.11 128.129 117.504 128.523 117.504 129.015V133.837C117.504 134.329 117.11 134.723 116.519 134.723Z" fill="#C2000B"/>
<path d="M116.519 144.958C116.027 144.958 115.534 144.564 115.534 144.072V139.25C115.534 138.758 115.928 138.364 116.519 138.364C117.11 138.364 117.504 138.758 117.504 139.25V144.072C117.504 144.564 117.11 144.958 116.519 144.958Z" fill="#C2000B"/>
<path d="M116.519 155.291C116.027 155.291 115.534 154.897 115.534 154.405V149.583C115.534 149.091 115.928 148.697 116.519 148.697C117.11 148.697 117.504 149.091 117.504 149.583V154.405C117.504 154.897 117.11 155.291 116.519 155.291Z" fill="#C2000B"/>
<path d="M116.519 165.526C116.027 165.526 115.534 165.132 115.534 164.64V159.818C115.534 159.326 115.928 158.932 116.519 158.932C117.11 158.932 117.504 159.326 117.504 159.818V164.64C117.504 165.132 117.11 165.526 116.519 165.526Z" fill="#C2000B"/>
<path d="M116.519 175.86C116.027 175.86 115.534 175.466 115.534 174.974V170.152C115.534 169.66 115.928 169.266 116.519 169.266C117.11 169.266 117.504 169.66 117.504 170.152V174.974C117.504 175.466 117.11 175.86 116.519 175.86Z" fill="#C2000B"/>
<path d="M116.519 186.094C116.027 186.094 115.534 185.7 115.534 185.208V180.386C115.534 179.894 115.928 179.5 116.519 179.5C117.11 179.5 117.504 179.894 117.504 180.386V185.208C117.504 185.7 117.11 186.094 116.519 186.094Z" fill="#C2000B"/>
<path d="M171.373 136.101C170.979 136.101 170.585 135.904 170.487 135.609L168.222 131.377C168.123 131.082 168.025 130.786 168.222 130.491C168.32 130.196 168.517 129.999 168.813 129.901C169.108 129.802 169.404 129.704 169.601 129.802C169.896 129.901 170.192 130.098 170.29 130.294L172.555 134.526C172.851 135.018 172.555 135.707 172.063 136.002C171.767 136.101 171.57 136.101 171.373 136.101ZM169.305 130.688H169.207C169.108 130.786 169.108 130.786 169.108 130.786L171.373 135.018C171.373 135.018 171.472 135.018 171.57 135.018C171.669 135.018 171.669 134.92 171.669 134.92L169.305 130.688C169.404 130.688 169.305 130.688 169.305 130.688Z" fill="#C2000B"/>
<path d="M118.194 36.3098C117.8 36.3098 117.406 36.113 117.307 35.8178L115.042 31.4876C114.747 30.9955 115.042 30.3067 115.535 30.0114C115.83 29.8146 116.126 29.8146 116.421 29.913C116.716 30.0114 116.913 30.2082 117.012 30.4051L119.277 34.6368C119.572 35.1289 119.277 35.8178 118.784 36.113C118.588 36.2114 118.391 36.3098 118.194 36.3098ZM116.027 30.8971C115.929 30.9955 115.929 30.9955 115.929 30.9955L118.194 35.2273C118.194 35.2273 118.292 35.2273 118.391 35.2273C118.489 35.1289 118.489 35.1289 118.489 35.1289L116.224 30.8971C116.224 30.8971 116.126 30.8971 116.027 30.8971Z" fill="#C2000B"/>
<path d="M132.67 63.4722C132.572 63.4722 132.473 63.4722 132.375 63.4722C132.079 63.3738 131.882 63.1769 131.784 62.9801L129.519 58.7484C129.223 58.2563 129.519 57.5674 130.011 57.2722C130.602 56.9769 131.291 57.1738 131.488 57.6658L133.753 61.8976C134.049 62.3896 133.753 63.0785 133.261 63.3738C133.163 63.4722 132.966 63.4722 132.67 63.4722ZM130.504 58.1579C130.405 58.2563 130.405 58.2563 130.405 58.2563L132.67 62.488C132.67 62.488 132.769 62.488 132.867 62.488C132.966 62.3896 132.966 62.3896 132.966 62.3896L130.701 58.1579C130.701 58.1579 130.602 58.0595 130.504 58.1579Z" fill="#C2000B"/>
<path d="M142.42 81.6786C142.321 81.6786 142.223 81.6786 142.223 81.6786C141.927 81.5802 141.632 81.3834 141.534 81.1866L139.268 76.9548C139.17 76.758 139.17 76.4628 139.17 76.1675C139.268 75.8723 139.465 75.5771 139.761 75.4787C140.352 75.1834 141.041 75.3802 141.238 75.8723L143.503 80.104C143.799 80.5961 143.503 81.285 143.011 81.5802C142.814 81.5802 142.617 81.6786 142.42 81.6786ZM140.352 76.266H140.253C140.155 76.266 140.155 76.3644 140.155 76.3644L142.42 80.5961C142.42 80.5961 142.518 80.5961 142.617 80.5961C142.715 80.4977 142.715 80.4977 142.715 80.4977L140.352 76.266Z" fill="#C2000B"/>
<path d="M137.594 72.6248C137.496 72.6248 137.397 72.6248 137.397 72.6248C137.102 72.5264 136.806 72.3296 136.708 72.1328L134.443 67.901C134.344 67.7042 134.344 67.4089 134.344 67.1137C134.443 66.8185 134.64 66.5232 134.935 66.4248C135.526 66.1296 136.216 66.3264 136.412 66.8185L138.678 71.0502C138.973 71.5423 138.678 72.2312 138.185 72.5264C137.988 72.5264 137.791 72.6248 137.594 72.6248ZM135.329 67.2121C135.231 67.2121 135.231 67.3105 135.231 67.3105L137.496 71.5423C137.496 71.5423 137.594 71.5423 137.693 71.5423C137.791 71.4439 137.791 71.4439 137.791 71.4439L135.526 67.2121C135.526 67.2121 135.428 67.2121 135.329 67.2121Z" fill="#C2000B"/>
<path d="M127.845 54.4183C127.746 54.4183 127.648 54.4183 127.549 54.4183C127.254 54.3199 127.057 54.1231 126.958 53.9262L124.693 49.6945C124.398 49.2024 124.693 48.5135 125.186 48.2183C125.777 47.9231 126.466 48.1199 126.663 48.612L128.928 52.8437C129.223 53.3358 128.928 54.0247 128.436 54.3199C128.239 54.4183 128.042 54.4183 127.845 54.4183ZM125.678 49.104C125.58 49.2024 125.58 49.2024 125.58 49.2024L127.845 53.4342C127.845 53.4342 127.943 53.4342 128.042 53.4342C128.14 53.3358 128.14 53.3358 128.14 53.3358L125.875 49.104C125.875 49.0056 125.777 49.0056 125.678 49.104Z" fill="#C2000B"/>
<path d="M123.019 45.3644C122.921 45.3644 122.822 45.3644 122.724 45.3644C122.428 45.266 122.231 45.0692 122.133 44.8723L119.868 40.6406C119.769 40.4438 119.769 40.1485 119.769 39.8533C119.868 39.5581 120.065 39.2628 120.36 39.1644C120.951 38.8692 121.64 39.066 121.837 39.5581L124.102 43.7898C124.398 44.2819 124.102 44.9708 123.61 45.266C123.413 45.266 123.216 45.3644 123.019 45.3644ZM120.853 39.9517C120.754 39.9517 120.754 40.0501 120.754 40.0501L123.019 44.2819C123.019 44.2819 123.118 44.2819 123.216 44.2819C123.315 44.1835 123.315 44.1835 123.315 44.1835L121.05 39.9517C121.05 39.9517 120.951 39.9517 120.853 39.9517Z" fill="#C2000B"/>
<path d="M156.897 108.939C156.798 108.939 156.7 108.939 156.7 108.939C156.404 108.841 156.109 108.644 156.01 108.447L153.745 104.215C153.45 103.723 153.745 103.034 154.238 102.739C154.533 102.641 154.828 102.542 155.025 102.641C155.321 102.739 155.616 102.936 155.715 103.133L157.98 107.365C158.078 107.561 158.078 107.857 158.078 108.152C157.98 108.447 157.783 108.742 157.487 108.841C157.29 108.841 157.093 108.939 156.897 108.939ZM154.828 103.526H154.73C154.631 103.625 154.631 103.625 154.631 103.625L156.897 107.857C156.897 107.857 156.995 107.857 157.093 107.857C157.192 107.857 157.192 107.758 157.192 107.758L154.828 103.526Z" fill="#C2000B"/>
<path d="M161.722 117.993C161.328 117.993 160.934 117.796 160.836 117.501L158.571 113.269C158.275 112.777 158.571 112.088 159.063 111.793C159.359 111.695 159.654 111.596 159.851 111.695C160.146 111.793 160.442 111.99 160.54 112.187L162.805 116.418C162.904 116.615 162.904 116.91 162.904 117.206C162.805 117.501 162.608 117.796 162.313 117.895C162.116 117.895 161.919 117.993 161.722 117.993ZM159.654 112.58H159.556C159.457 112.679 159.457 112.679 159.457 112.679L161.722 116.91C161.722 116.91 161.821 116.91 161.919 116.91C162.018 116.91 162.018 116.812 162.018 116.812L159.654 112.58Z" fill="#C2000B"/>
<path d="M166.548 127.047C166.154 127.047 165.76 126.85 165.661 126.555L163.396 122.323C163.298 122.028 163.199 121.733 163.396 121.437C163.495 121.142 163.692 120.945 163.987 120.847C164.283 120.748 164.578 120.65 164.775 120.748C165.071 120.847 165.366 121.044 165.464 121.24L167.73 125.472C168.025 125.964 167.73 126.653 167.237 126.948C166.942 126.948 166.745 127.047 166.548 127.047ZM164.48 121.634H164.381C164.283 121.733 164.283 121.733 164.283 121.733L166.548 125.964C166.548 125.964 166.646 125.964 166.745 125.964C166.843 125.964 166.843 125.866 166.843 125.866L164.48 121.634Z" fill="#C2000B"/>
<path d="M147.245 90.7327C147.147 90.7327 147.048 90.7327 147.048 90.7327C146.753 90.6343 146.458 90.4375 146.359 90.2406L144.094 86.0089C143.996 85.8121 143.996 85.5168 143.996 85.2216C144.094 84.9263 144.291 84.6311 144.586 84.5327C144.882 84.4343 145.177 84.3359 145.374 84.4343C145.67 84.5327 145.965 84.7295 146.064 84.9264L148.329 89.1581C148.624 89.6502 148.329 90.339 147.836 90.6343C147.639 90.7327 147.442 90.7327 147.245 90.7327ZM145.177 85.32H145.079C144.98 85.32 144.98 85.4184 144.98 85.4184L147.245 89.6502C147.245 89.6502 147.344 89.6502 147.442 89.6502C147.541 89.5517 147.541 89.5517 147.541 89.5517L145.177 85.32Z" fill="#C2000B"/>
<path d="M152.071 99.7865C151.973 99.7865 151.874 99.7865 151.874 99.7865C151.579 99.6881 151.283 99.4912 151.185 99.2944L148.92 95.0627C148.624 94.5706 148.92 93.8817 149.412 93.5865C149.708 93.4881 150.003 93.3896 150.2 93.4881C150.495 93.5865 150.791 93.7833 150.889 93.9801L153.154 98.2119C153.253 98.4087 153.253 98.7039 153.253 98.9992C153.154 99.2944 152.957 99.5896 152.662 99.6881C152.465 99.7865 152.268 99.7865 152.071 99.7865ZM149.806 94.4722C149.708 94.5706 149.708 94.5706 149.708 94.5706L151.973 98.8023C151.973 98.8023 152.071 98.8023 152.17 98.8023C152.268 98.8023 152.268 98.7039 152.268 98.7039L150.003 94.4722C150.003 94.3738 149.904 94.3738 149.806 94.4722Z" fill="#C2000B"/>
<path d="M118.292 36.1132C117.996 36.1132 117.701 35.9164 117.504 35.6212L115.239 31.3894C115.14 31.1926 115.14 30.8973 115.239 30.7005C115.337 30.5037 115.534 30.3069 115.731 30.2085C116.224 30.0116 116.716 30.11 117.012 30.5037L119.277 34.7354C119.375 34.9323 119.375 35.2275 119.277 35.4243C119.178 35.6212 118.981 35.818 118.784 35.9164C118.587 36.1132 118.39 36.1132 118.292 36.1132Z" fill="#C2000B"/>
<path d="M123.118 45.1671C123.019 45.1671 122.921 45.1671 122.822 45.1671C122.625 45.0687 122.428 44.9703 122.33 44.7735L120.065 40.4433C119.868 40.0497 120.065 39.4592 120.459 39.2624C120.951 38.9671 121.443 39.1639 121.739 39.5576L124.004 43.7893C124.102 43.9862 124.102 44.2814 124.004 44.4782C123.905 44.6751 123.708 44.8719 123.511 44.9703C123.413 45.1671 123.216 45.1671 123.118 45.1671Z" fill="#C2000B"/>
<path d="M127.943 54.2212C127.845 54.2212 127.746 54.2212 127.648 54.2212C127.451 54.1228 127.254 54.0244 127.155 53.8276L124.89 49.5958C124.693 49.2022 124.89 48.6117 125.284 48.4149C125.777 48.1196 126.269 48.3164 126.564 48.7101L128.829 52.9418C128.928 53.1387 128.928 53.4339 128.829 53.6307C128.731 53.8276 128.534 54.0244 128.337 54.1228C128.239 54.2212 128.042 54.2212 127.943 54.2212Z" fill="#C2000B"/>
<path d="M132.769 63.3739C132.67 63.3739 132.572 63.3739 132.473 63.3739C132.276 63.2755 132.079 63.1771 131.981 62.9803L129.716 58.7485C129.519 58.3549 129.716 57.7644 130.11 57.5676C130.602 57.3707 131.095 57.4691 131.39 57.8628L133.655 62.0945C133.852 62.4882 133.655 63.0787 133.261 63.2755C133.064 63.2755 132.867 63.3739 132.769 63.3739Z" fill="#C2000B"/>
<path d="M137.594 72.4273C137.496 72.4273 137.397 72.4273 137.299 72.4273C137.102 72.3289 136.905 72.2305 136.807 72.0337L134.541 67.802C134.443 67.6051 134.443 67.4083 134.443 67.1131C134.541 66.9162 134.738 66.621 134.935 66.5226C135.428 66.2273 135.92 66.4242 136.216 66.8178L138.481 71.0496C138.678 71.4432 138.481 72.0337 138.087 72.2305C137.89 72.3289 137.791 72.4273 137.594 72.4273Z" fill="#C2000B"/>
<path d="M142.42 81.4819C142.321 81.4819 142.223 81.4819 142.124 81.4819C141.927 81.3835 141.73 81.2851 141.632 81.0883L139.367 76.7581C139.268 76.5613 139.268 76.3645 139.268 76.0693C139.367 75.8724 139.564 75.5772 139.761 75.4788C139.958 75.3804 140.253 75.282 140.549 75.3804C140.746 75.4788 140.943 75.5772 141.041 75.774L143.306 80.0058C143.405 80.2026 143.405 80.4978 143.306 80.6946C143.208 80.8915 143.011 81.0883 142.814 81.1867C142.715 81.4819 142.617 81.4819 142.42 81.4819Z" fill="#C2000B"/>
<path d="M147.245 90.5352C147.147 90.5352 147.049 90.5352 146.95 90.5352C146.753 90.4368 146.556 90.3384 146.458 90.1416L144.193 85.9098C144.094 85.713 144.094 85.5162 144.094 85.2209C144.193 85.0241 144.39 84.7289 144.586 84.6304C144.783 84.532 145.079 84.4336 145.374 84.532C145.571 84.6304 145.768 84.7289 145.867 84.9257L148.132 89.1574C148.23 89.3543 148.23 89.5511 148.23 89.8463C148.132 90.0431 147.935 90.3384 147.738 90.4368C147.541 90.5352 147.442 90.5352 147.245 90.5352Z" fill="#C2000B"/>
<path d="M152.071 99.6883C151.972 99.6883 151.874 99.6883 151.775 99.6883C151.579 99.5898 151.382 99.4914 151.283 99.2946L149.018 95.0629C148.821 94.6692 149.018 94.0787 149.412 93.8819C149.609 93.7835 149.904 93.6851 150.2 93.7835C150.397 93.8819 150.594 93.9803 150.692 94.1771L152.957 98.4089C153.056 98.6057 153.056 98.8025 153.056 99.0978C152.957 99.2946 152.76 99.5898 152.563 99.6883C152.366 99.5898 152.268 99.6883 152.071 99.6883Z" fill="#C2000B"/>
<path d="M156.897 108.742C156.798 108.742 156.7 108.742 156.601 108.742C156.404 108.643 156.207 108.545 156.109 108.348L153.844 104.116C153.745 103.919 153.745 103.723 153.745 103.427C153.844 103.231 154.041 102.935 154.238 102.837C154.435 102.738 154.73 102.64 155.025 102.738C155.222 102.837 155.419 102.935 155.518 103.132L157.783 107.364C157.881 107.561 157.881 107.758 157.881 108.053C157.783 108.25 157.586 108.545 157.389 108.643C157.192 108.643 157.094 108.742 156.897 108.742Z" fill="#C2000B"/>
<path d="M161.722 117.796C161.624 117.796 161.525 117.796 161.427 117.796C161.23 117.697 161.033 117.599 160.934 117.402L158.669 113.17C158.571 112.974 158.571 112.678 158.669 112.482C158.768 112.285 158.965 112.088 159.162 111.989C159.359 111.891 159.654 111.793 159.949 111.891C160.146 111.989 160.343 112.088 160.442 112.285L162.707 116.516C162.805 116.713 162.805 116.91 162.805 117.205C162.707 117.402 162.51 117.697 162.313 117.796C162.116 117.796 161.919 117.796 161.722 117.796Z" fill="#C2000B"/>
<path d="M166.548 126.85C166.449 126.85 166.449 126.85 166.351 126.85C166.055 126.751 165.858 126.653 165.76 126.456L163.495 122.224C163.396 122.028 163.396 121.732 163.495 121.535C163.593 121.339 163.79 121.142 163.987 121.043C164.184 120.945 164.48 120.847 164.775 120.945C164.972 121.043 165.169 121.142 165.267 121.339L167.532 125.57C167.631 125.767 167.631 125.964 167.631 126.259C167.532 126.456 167.335 126.751 167.139 126.85C166.942 126.85 166.745 126.85 166.548 126.85Z" fill="#C2000B"/>
<path d="M171.373 135.904C171.078 135.904 170.782 135.707 170.585 135.412L168.32 131.18C168.222 130.984 168.222 130.688 168.32 130.492C168.419 130.295 168.616 130.098 168.813 129.999C169.01 129.901 169.305 129.803 169.601 129.901C169.798 129.999 169.995 130.098 170.093 130.295L172.358 134.526C172.457 134.723 172.457 135.019 172.358 135.215C172.26 135.412 172.063 135.609 171.866 135.707C171.767 135.904 171.57 135.904 171.373 135.904Z" fill="#C2000B"/>
<path d="M169.798 145.549C169.601 145.549 169.305 145.45 169.108 145.352C168.616 144.958 168.419 144.269 168.714 143.876L171.472 139.939C171.669 139.742 171.866 139.546 172.26 139.546C172.555 139.546 172.851 139.644 173.047 139.742C173.54 140.136 173.737 140.825 173.441 141.219L170.684 145.155C170.487 145.352 170.29 145.549 169.896 145.549C169.896 145.549 169.896 145.549 169.798 145.549ZM169.699 144.466C169.798 144.565 169.896 144.565 169.896 144.466L172.654 140.53C172.654 140.53 172.654 140.431 172.555 140.431C172.457 140.333 172.358 140.431 172.358 140.431L169.601 144.368C169.601 144.368 169.601 144.466 169.699 144.466Z" fill="#C2000B"/>
<path d="M122.921 213.06C122.724 213.06 122.428 212.961 122.231 212.863C121.739 212.469 121.542 211.78 121.837 211.387L124.595 207.45C124.89 206.958 125.58 206.86 126.17 207.253C126.367 207.45 126.564 207.647 126.663 207.942C126.761 208.237 126.663 208.533 126.564 208.828L123.807 212.764C123.61 212.961 123.315 213.06 122.921 213.06ZM122.822 212.075C122.921 212.174 123.019 212.174 123.019 212.075L125.777 208.139C125.777 208.139 125.777 208.04 125.678 208.04C125.58 207.942 125.481 207.942 125.481 208.04L122.724 211.977C122.724 211.977 122.724 211.977 122.822 212.075Z" fill="#C2000B"/>
<path d="M134.64 196.23C134.443 196.23 134.147 196.132 133.95 196.034C133.458 195.64 133.261 194.951 133.557 194.557L136.314 190.621C136.511 190.424 136.708 190.227 137.102 190.227C137.397 190.227 137.693 190.326 137.89 190.424C138.382 190.818 138.579 191.507 138.284 191.9L135.526 195.837C135.329 196.034 135.034 196.23 134.64 196.23ZM134.541 195.148C134.64 195.246 134.738 195.246 134.738 195.148L137.496 191.211C137.496 191.211 137.496 191.113 137.397 191.113C137.299 191.014 137.2 191.113 137.2 191.113L134.443 195.049C134.443 195.049 134.443 195.148 134.541 195.148Z" fill="#C2000B"/>
<path d="M128.829 204.695C128.633 204.695 128.337 204.596 128.14 204.498C127.648 204.104 127.451 203.415 127.746 203.022L130.504 199.085C130.701 198.888 130.898 198.691 131.292 198.691C131.587 198.691 131.882 198.79 132.079 198.888C132.375 199.085 132.572 199.38 132.572 199.676C132.572 199.971 132.572 200.168 132.375 200.463L129.617 204.399C129.42 204.498 129.125 204.695 128.829 204.695ZM128.633 203.612C128.731 203.71 128.829 203.612 128.829 203.612L131.587 199.676C131.587 199.676 131.587 199.577 131.488 199.577C131.39 199.479 131.292 199.577 131.292 199.577L128.534 203.514C128.534 203.514 128.534 203.514 128.633 203.612Z" fill="#C2000B"/>
<path d="M117.11 221.523C116.913 221.523 116.618 221.424 116.421 221.326C116.224 221.129 116.027 220.932 115.929 220.637C115.83 220.342 115.929 220.047 116.027 219.751L118.784 215.815C118.981 215.618 119.178 215.421 119.572 215.421C119.868 215.421 120.163 215.52 120.36 215.618C120.853 216.012 121.05 216.701 120.754 217.094L117.997 221.031C117.701 221.425 117.406 221.523 117.11 221.523ZM119.572 216.405L116.815 220.342C116.815 220.342 116.815 220.44 116.913 220.44C117.012 220.539 117.11 220.44 117.11 220.44L119.868 216.504C119.868 216.504 119.868 216.405 119.769 216.405C119.671 216.405 119.671 216.405 119.572 216.405Z" fill="#C2000B"/>
<path d="M152.268 170.841C152.071 170.841 151.776 170.742 151.579 170.644C151.283 170.447 151.086 170.152 151.086 169.857C151.086 169.561 151.086 169.365 151.283 169.069L154.041 165.133C154.238 164.936 154.435 164.739 154.73 164.739C155.025 164.641 155.321 164.739 155.616 164.936C155.912 165.133 156.109 165.428 156.109 165.723C156.109 166.019 156.109 166.215 155.912 166.511L153.154 170.447C152.859 170.742 152.563 170.841 152.268 170.841ZM154.828 165.723C154.73 165.723 154.73 165.723 154.828 165.723L152.071 169.66C152.071 169.66 152.071 169.758 152.169 169.758C152.268 169.857 152.366 169.857 152.366 169.758L155.124 165.822C155.124 165.822 155.124 165.723 155.025 165.723C154.828 165.723 154.828 165.723 154.828 165.723Z" fill="#C2000B"/>
<path d="M158.078 162.377C157.881 162.377 157.586 162.278 157.389 162.18C157.192 161.983 156.995 161.786 156.897 161.491C156.798 161.196 156.897 160.9 156.995 160.605L159.753 156.669C159.95 156.472 160.146 156.275 160.442 156.275C160.737 156.177 161.033 156.275 161.328 156.472C161.821 156.865 162.018 157.554 161.722 157.948L158.965 161.884C158.768 162.081 158.571 162.278 158.275 162.278C158.275 162.377 158.177 162.377 158.078 162.377ZM160.639 157.259L157.881 161.196C157.881 161.196 157.881 161.294 157.98 161.294C158.078 161.392 158.177 161.294 158.177 161.294L160.934 157.357C160.934 157.357 160.934 157.259 160.836 157.259C160.737 157.259 160.639 157.259 160.639 157.259Z" fill="#C2000B"/>
<path d="M163.987 154.012C163.79 154.012 163.495 153.914 163.298 153.815C163.002 153.618 162.805 153.323 162.805 153.028C162.805 152.733 162.805 152.536 163.002 152.241L165.76 148.304C166.055 147.812 166.745 147.714 167.336 148.107C167.631 148.304 167.828 148.599 167.828 148.895C167.828 149.19 167.828 149.387 167.631 149.682L164.874 153.618C164.677 153.815 164.283 154.012 163.987 154.012ZM166.548 148.796C166.449 148.796 166.449 148.796 166.548 148.796L163.79 152.733C163.79 152.733 163.79 152.831 163.889 152.831C163.987 152.93 164.086 152.93 164.086 152.831L166.843 148.895C166.843 148.895 166.843 148.796 166.745 148.796C166.646 148.895 166.548 148.796 166.548 148.796Z" fill="#C2000B"/>
<path d="M140.549 187.768C140.352 187.768 140.056 187.669 139.859 187.571C139.367 187.177 139.17 186.488 139.465 186.095L142.223 182.158C142.42 181.961 142.617 181.764 142.912 181.764C143.208 181.666 143.503 181.764 143.799 181.961C144.094 182.158 144.291 182.453 144.291 182.749C144.291 183.044 144.291 183.241 144.094 183.536L141.337 187.472C141.14 187.571 140.844 187.768 140.549 187.768ZM140.352 186.685C140.45 186.783 140.549 186.783 140.549 186.685L143.306 182.749C143.306 182.749 143.306 182.65 143.208 182.65C143.109 182.552 143.011 182.65 143.011 182.65L140.253 186.587C140.253 186.587 140.253 186.685 140.352 186.685Z" fill="#C2000B"/>
<path d="M146.359 179.304C146.162 179.304 145.867 179.205 145.67 179.107C145.177 178.713 144.98 178.024 145.276 177.631L148.033 173.694C148.23 173.498 148.427 173.301 148.821 173.301C149.117 173.301 149.412 173.399 149.609 173.498C150.101 173.891 150.298 174.58 150.003 174.974L147.245 178.91C147.048 179.107 146.852 179.304 146.458 179.304C146.458 179.304 146.458 179.304 146.359 179.304ZM148.92 174.186L146.162 178.123C146.162 178.123 146.162 178.221 146.261 178.221C146.359 178.32 146.458 178.221 146.458 178.221L149.215 174.285C149.215 174.285 149.215 174.186 149.117 174.186C149.018 174.186 148.92 174.186 148.92 174.186Z" fill="#C2000B"/>
<path d="M117.012 221.326C116.815 221.326 116.618 221.227 116.421 221.129C116.027 220.834 115.83 220.243 116.125 219.85L118.883 215.913C119.178 215.519 119.769 215.421 120.163 215.716C120.36 215.913 120.557 216.11 120.557 216.307C120.557 216.503 120.557 216.799 120.459 216.897L117.701 220.834C117.603 221.227 117.307 221.326 117.012 221.326Z" fill="#C2000B"/>
<path d="M122.921 212.961C122.724 212.961 122.527 212.863 122.33 212.764C121.936 212.469 121.739 211.879 122.034 211.485L124.792 207.548C125.087 207.155 125.678 207.056 126.072 207.352C126.269 207.45 126.368 207.647 126.466 207.942C126.564 208.237 126.466 208.434 126.368 208.631L123.61 212.568C123.413 212.764 123.216 212.961 122.921 212.961Z" fill="#C2000B"/>
<path d="M128.731 204.497C128.534 204.497 128.337 204.399 128.14 204.3C127.943 204.202 127.845 204.005 127.746 203.71C127.648 203.414 127.746 203.218 127.845 203.021L130.602 199.084C130.898 198.691 131.488 198.592 131.882 198.887C132.079 198.986 132.178 199.183 132.276 199.478C132.375 199.773 132.276 199.97 132.178 200.167L129.42 204.103C129.322 204.3 129.125 204.497 128.731 204.497C128.829 204.497 128.829 204.497 128.731 204.497Z" fill="#C2000B"/>
<path d="M134.64 196.034C134.443 196.034 134.246 195.935 134.049 195.837C133.655 195.542 133.458 194.951 133.754 194.558L136.511 190.621C136.806 190.227 137.397 190.129 137.791 190.424C137.988 190.621 138.185 190.818 138.185 191.015C138.185 191.212 138.185 191.507 138.087 191.605L135.329 195.542C135.132 195.935 134.935 196.034 134.64 196.034Z" fill="#C2000B"/>
<path d="M140.45 187.571C140.253 187.571 140.056 187.472 139.859 187.374C139.662 187.177 139.465 186.98 139.465 186.784C139.465 186.587 139.465 186.291 139.564 186.193L142.321 182.257C142.617 181.863 143.208 181.764 143.602 182.06C143.996 182.355 144.193 182.945 143.897 183.339L141.14 187.276C141.041 187.472 140.844 187.571 140.45 187.571C140.549 187.571 140.549 187.571 140.45 187.571Z" fill="#C2000B"/>
<path d="M146.359 179.107C146.162 179.107 145.965 179.009 145.768 178.91C145.374 178.615 145.177 178.025 145.473 177.631L148.23 173.695C148.526 173.301 149.117 173.202 149.51 173.498C149.904 173.793 150.101 174.383 149.806 174.777L147.048 178.714C146.95 179.009 146.654 179.107 146.359 179.107Z" fill="#C2000B"/>
<path d="M152.268 170.643C152.071 170.643 151.874 170.545 151.677 170.446C151.48 170.25 151.283 170.053 151.283 169.856C151.283 169.659 151.283 169.364 151.382 169.265L154.139 165.329C154.238 165.132 154.435 165.034 154.73 164.935C155.025 164.935 155.222 164.935 155.518 165.132C155.715 165.231 155.813 165.427 155.912 165.723C156.01 166.018 155.912 166.215 155.813 166.412L153.056 170.348C152.957 170.545 152.76 170.643 152.465 170.742C152.366 170.643 152.268 170.643 152.268 170.643Z" fill="#C2000B"/>
<path d="M158.078 162.279C157.881 162.279 157.684 162.18 157.488 162.082C157.094 161.786 156.897 161.196 157.192 160.802L159.95 156.866C160.245 156.472 160.836 156.374 161.23 156.669C161.624 156.964 161.821 157.555 161.525 157.948L158.768 161.885C158.669 162.082 158.374 162.279 158.078 162.279Z" fill="#C2000B"/>
<path d="M163.987 153.815C163.79 153.815 163.593 153.716 163.396 153.618C163.199 153.421 163.002 153.224 163.002 153.027C163.002 152.83 163.002 152.535 163.101 152.437L165.858 148.5C165.957 148.303 166.154 148.205 166.449 148.107C166.745 148.107 166.942 148.107 167.237 148.303C167.434 148.402 167.532 148.599 167.631 148.894C167.729 149.189 167.631 149.386 167.532 149.583L164.775 153.519C164.677 153.716 164.48 153.815 164.184 153.913C164.086 153.815 163.987 153.815 163.987 153.815Z" fill="#C2000B"/>
<path d="M169.798 145.351C169.601 145.351 169.404 145.253 169.207 145.154C168.813 144.859 168.616 144.269 168.911 143.875L171.669 139.938C171.964 139.545 172.555 139.446 172.949 139.742C173.343 140.037 173.54 140.627 173.244 141.021L170.487 144.957C170.388 145.253 170.093 145.351 169.798 145.351Z" fill="#C2000B"/>
<path d="M116.519 222.212C88.2554 222.212 68.9531 210.501 60.5822 188.259C52.7037 167.396 54.9688 136.986 66.7865 104.904C78.0133 74.888 96.1338 46.8404 115.436 29.9134C116.027 29.3229 117.012 29.3229 117.701 29.9134C137.003 46.7419 155.124 74.7895 166.252 105.002C178.07 137.085 180.335 167.494 172.457 188.358C164.086 210.501 144.783 222.212 116.519 222.212ZM116.519 33.4562C98.1035 50.088 80.7708 77.1515 70.0364 106.183C58.5141 137.478 56.249 167.002 63.8321 187.177C71.7105 208.237 89.5356 218.866 116.618 218.866C143.7 218.866 161.427 208.139 169.404 187.078C176.987 166.904 174.722 137.38 163.199 106.085C152.366 77.1515 135.034 50.088 116.519 33.4562Z" fill="white"/>
<path d="M116.519 221.72C116.125 221.72 115.83 221.523 115.633 221.228L58.6125 139.25C58.4156 138.856 58.3171 138.462 58.514 138.069L115.535 30.7006C115.83 30.1102 116.519 29.9133 117.012 30.2086C117.603 30.5038 117.8 31.1927 117.504 31.6848L60.8776 138.561L117.504 219.948C117.898 220.44 117.701 221.129 117.209 221.523C117.012 221.621 116.815 221.72 116.519 221.72Z" fill="white"/>
<path d="M71.809 204.891C71.7105 204.891 71.612 204.891 71.5135 204.891C70.9226 204.694 70.5287 204.103 70.7257 203.513L88.6492 136.986L78.7026 80.2019C78.6042 79.7098 78.8011 79.2178 79.2935 79.021L133.064 48.3162C133.557 48.021 134.246 48.2178 134.64 48.7099C134.935 49.2019 134.738 49.8908 134.246 50.2845L81.0662 80.5956L90.9143 136.789C90.9143 136.986 90.9143 137.084 90.9143 137.281L72.8923 204.005C72.7938 204.595 72.3014 204.891 71.809 204.891Z" fill="white"/>
<path d="M161.328 204.891C160.836 204.891 160.343 204.595 160.245 204.103L142.223 137.38C142.223 137.183 142.124 137.084 142.223 136.888L152.071 80.694L98.9897 50.2845C98.4973 49.9892 98.3003 49.3003 98.5958 48.7099C98.8912 48.2178 99.5806 48.021 100.171 48.3162L153.942 79.021C154.336 79.2178 154.533 79.7098 154.533 80.2019L144.586 136.888L162.51 203.415C162.707 204.005 162.313 204.595 161.722 204.792C161.525 204.891 161.427 204.891 161.328 204.891Z" fill="white"/>
<path d="M145.078 216.405C144.881 216.405 144.586 216.307 144.389 216.208L116.519 196.526L88.6488 216.208C88.3534 216.405 88.0579 216.503 87.7625 216.405C87.467 216.307 87.1716 216.11 87.0731 215.913L56.741 165.821C56.4455 165.329 56.544 164.738 56.9379 164.345L86.6792 138.265L59.5969 139.742C59.1045 139.742 58.6121 139.446 58.5136 138.954C58.3167 138.462 58.5136 137.97 58.9075 137.675L97.3151 111.596L115.436 58.6496C115.633 58.1575 116.027 57.8623 116.519 57.8623C117.011 57.8623 117.405 58.1575 117.602 58.6496L135.723 111.596L174.13 137.675C174.524 137.97 174.721 138.462 174.524 138.954C174.327 139.446 173.933 139.742 173.441 139.742L146.359 138.265L176.1 164.345C176.494 164.738 176.592 165.329 176.297 165.821L145.965 215.815C145.768 216.11 145.571 216.307 145.275 216.307C145.177 216.405 145.177 216.405 145.078 216.405ZM117.996 194.853L144.685 213.748L173.933 165.526L143.7 138.856L117.996 194.853ZM59.1045 165.526L88.3534 213.748L115.14 194.853L89.4367 138.856L59.1045 165.526ZM91.0124 136.986L116.519 192.589L142.026 136.986L133.852 113.072L116.519 101.262L99.2848 113.072L91.0124 136.986ZM144.094 135.904L169.6 137.281L137.003 115.138L144.094 135.904ZM96.1334 115.138L63.5362 137.281L89.0427 135.904L96.1334 115.138ZM116.519 62.4877L100.467 109.431L115.928 98.9004C116.322 98.6051 116.814 98.6051 117.208 98.9004L132.67 109.431L116.519 62.4877Z" fill="white"/>
<path d="M116.519 101.066C116.322 101.066 116.125 101.066 116.027 100.967L79.2935 80.9895C78.7027 80.6942 78.5057 80.0054 78.8011 79.4149C79.0966 78.8244 79.786 78.6276 80.3768 78.9228L116.618 98.5069L152.859 78.9228C153.45 78.6276 154.041 78.8244 154.435 79.4149C154.73 80.0054 154.533 80.6942 153.942 80.9895L117.11 100.869C116.913 100.967 116.716 101.066 116.519 101.066Z" fill="white"/>
<path d="M109.626 115.138L111.595 123.504H110.414V169.069H108.838V123.504H107.656L109.626 115.138Z" fill="#C2000B"/>
</svg>
